<svg width="22" height="22" viewBox="0 0 22 22" fill="none" xmlns="http://www.w3.org/2000/svg">
<path d="M10.8863 0.0824776C4.88446 0.0824776 0.0175781 5.08193 0.0175781 11.2496C0.0175781 16.1836 3.1318 20.3695 7.45028 21.8462C7.99346 21.9495 8.19288 21.6039 8.19288 21.3089C8.19288 21.0427 8.18281 20.163 8.17813 19.2298C5.15443 19.9054 4.5164 17.9122 4.5164 17.9122C4.02199 16.6215 3.30962 16.2782 3.30962 16.2782C2.3235 15.5851 3.38395 15.5994 3.38395 15.5994C4.47536 15.678 5.05004 16.7502 5.05004 16.7502C6.01943 18.4574 7.59265 17.9638 8.21286 17.6785C8.31041 16.9569 8.59208 16.4639 8.90291 16.1852C6.48882 15.9028 3.95108 14.9453 3.95108 10.6663C3.95108 9.4471 4.37565 8.4509 5.07092 7.66885C4.95807 7.3874 4.58605 6.25177 5.17621 4.71356C5.17621 4.71356 6.0889 4.41343 8.16589 5.85825C9.03286 5.61082 9.96264 5.48674 10.8863 5.48248C11.81 5.48674 12.7405 5.61082 13.6091 5.85825C15.6835 4.41343 16.595 4.71356 16.595 4.71356C17.1866 6.25177 16.8144 7.3874 16.7015 7.66885C17.3984 8.4509 17.8201 9.4471 17.8201 10.6663C17.8201 14.9555 15.2775 15.8999 12.8573 16.1763C13.2471 16.5229 13.5945 17.2025 13.5945 18.2444C13.5945 19.7384 13.5819 20.9409 13.5819 21.3089C13.5819 21.6061 13.7775 21.9543 14.3285 21.8447C18.6446 20.3664 21.7549 16.1819 21.7549 11.2496C21.7549 5.08193 16.8887 0.0824776 10.8863 0.0824776Z" fill="#4F4F4F"/>
</svg>
