<svg width="23" height="22" viewBox="0 0 23 22" fill="none" xmlns="http://www.w3.org/2000/svg">
<path fill-rule="evenodd" clip-rule="evenodd" d="M11.8 0C5.61439 0 0.599976 4.92487 0.599976 11C0.599976 17.0751 5.61439 22 11.8 22C17.9856 22 23 17.0751 23 11C23 4.92487 17.9856 0 11.8 0ZM11.7832 11.9255L7.59937 8.94275V15.2304H6.90041C6.51099 15.2304 6.20145 14.9264 6.20145 14.5439V7.5909C6.20145 7.5615 6.20328 7.53395 6.20683 7.50815C6.21959 7.39934 6.26008 7.29286 6.33127 7.19863C6.56093 6.89461 7.01026 6.82597 7.32978 7.05152L11.7931 10.2387L16.2864 7.0123C16.596 6.78674 17.0353 6.85539 17.265 7.16921C17.3871 7.33082 17.4245 7.52847 17.3848 7.71205V14.5537C17.3848 14.9264 17.0752 15.2304 16.6858 15.2304H15.9869V8.92779L11.7832 11.9255Z" fill="#4F4F4F"/>
</svg>
