<svg width="23" height="22" viewBox="0 0 23 22" fill="none" xmlns="http://www.w3.org/2000/svg">
<path fill-rule="evenodd" clip-rule="evenodd" d="M11.2 0C5.01441 0 0 4.92487 0 11C0 17.0751 5.01441 22 11.2 22C17.3856 22 22.4 17.0751 22.4 11C22.4 4.92487 17.3856 0 11.2 0ZM5.37675 9.11068H7.91491V16.6006H5.37675V9.11068ZM8.08208 6.79374C8.0656 6.05935 7.53089 5.5 6.6626 5.5C5.79431 5.5 5.22665 6.05935 5.22665 6.79374C5.22665 7.51291 5.77753 8.08837 6.62966 8.08837H6.64588C7.53089 8.08837 8.08208 7.51291 8.08208 6.79374ZM14.1461 8.9348C15.8164 8.9348 17.0685 10.0055 17.0685 12.3061L17.0684 16.6006H14.5304V12.5935C14.5304 11.587 14.1631 10.9002 13.2442 10.9002C12.543 10.9002 12.1253 11.3632 11.9419 11.8104C11.8748 11.9707 11.8583 12.194 11.8583 12.4178V16.6008H9.31985C9.31985 16.6008 9.3533 9.8137 9.31985 9.11088H11.8583V10.1718C12.1952 9.66178 12.7985 8.9348 14.1461 8.9348Z" fill="#4F4F4F"/>
</svg>
