<svg width="14" height="14" viewBox="0 0 14 14" fill="none" xmlns="http://www.w3.org/2000/svg">
<path d="M7.00004 0.333332C7.36823 0.333332 7.66671 0.631809 7.66671 0.999999V1.66667C7.66671 2.03486 7.36823 2.33333 7.00004 2.33333C6.63185 2.33333 6.33337 2.03486 6.33337 1.66667V0.999999C6.33337 0.631809 6.63185 0.333332 7.00004 0.333332ZM11.7141 2.28595C11.9745 2.5463 11.9745 2.96841 11.7141 3.22876L11.2427 3.70016C10.9824 3.96051 10.5603 3.96051 10.2999 3.70016C10.0396 3.43981 10.0396 3.0177 10.2999 2.75735L10.7713 2.28595C11.0317 2.0256 11.4538 2.0256 11.7141 2.28595ZM2.28599 2.28595C2.54634 2.0256 2.96845 2.0256 3.2288 2.28595L3.7002 2.75735C3.96055 3.0177 3.96055 3.43981 3.7002 3.70016C3.43986 3.96051 3.01775 3.96051 2.7574 3.70016L2.28599 3.22876C2.02564 2.96841 2.02564 2.5463 2.28599 2.28595ZM7.00004 4.33333C5.52728 4.33333 4.33337 5.52724 4.33337 7C4.33337 8.47276 5.52728 9.66667 7.00004 9.66667C8.4728 9.66667 9.66671 8.47276 9.66671 7C9.66671 5.52724 8.4728 4.33333 7.00004 4.33333ZM3.00004 7C3.00004 4.79086 4.7909 3 7.00004 3C9.20918 3 11 4.79086 11 7C11 9.20914 9.20918 11 7.00004 11C4.7909 11 3.00004 9.20914 3.00004 7ZM0.333374 7C0.333374 6.63181 0.631851 6.33333 1.00004 6.33333H1.66671C2.0349 6.33333 2.33337 6.63181 2.33337 7C2.33337 7.36819 2.0349 7.66667 1.66671 7.66667H1.00004C0.631851 7.66667 0.333374 7.36819 0.333374 7ZM11.6667 7C11.6667 6.63181 11.9652 6.33333 12.3334 6.33333H13C13.3682 6.33333 13.6667 6.63181 13.6667 7C13.6667 7.36819 13.3682 7.66667 13 7.66667H12.3334C11.9652 7.66667 11.6667 7.36819 11.6667 7ZM2.7574 10.2998C3.01775 10.0395 3.43986 10.0395 3.70021 10.2998C3.96055 10.5602 3.96055 10.9823 3.7002 11.2426L3.2288 11.714C2.96845 11.9744 2.54634 11.9744 2.28599 11.714C2.02564 11.4537 2.02564 11.0316 2.28599 10.7712L2.7574 10.2998ZM10.2999 11.2426C10.0396 10.9823 10.0396 10.5602 10.2999 10.2998C10.5603 10.0395 10.9824 10.0395 11.2427 10.2998L11.7141 10.7712C11.9745 11.0316 11.9745 11.4537 11.7141 11.714C11.4538 11.9744 11.0317 11.9744 10.7713 11.714L10.2999 11.2426ZM7.00004 11.6667C7.36823 11.6667 7.66671 11.9651 7.66671 12.3333V13C7.66671 13.3682 7.36823 13.6667 7.00004 13.6667C6.63185 13.6667 6.33337 13.3682 6.33337 13V12.3333C6.33337 11.9651 6.63185 11.6667 7.00004 11.6667Z" fill="#2A2833"/>
</svg>
