<svg width="24" height="22" viewBox="0 0 24 22" fill="none" xmlns="http://www.w3.org/2000/svg">
<path fill-rule="evenodd" clip-rule="evenodd" d="M23.1333 11C23.1333 17.0751 18.1189 22 11.9333 22C5.74775 22 0.733337 17.0751 0.733337 11C0.733337 4.92487 5.74775 0 11.9333 0C18.1189 0 23.1333 4.92487 23.1333 11ZM8.23337 9.99236C7.11142 10.4735 5.95863 10.9678 4.90451 11.5381L4.90444 11.5382C4.35401 11.9339 5.08564 12.2139 5.77195 12.4765C5.88106 12.5183 5.98903 12.5596 6.09051 12.6008C6.17497 12.6263 6.26085 12.6532 6.34788 12.6804C7.11119 12.9193 7.96234 13.1856 8.70338 12.785C9.92071 12.0982 11.0695 11.3041 12.2175 10.5107C12.5935 10.2508 12.9695 9.99088 13.3478 9.73486C13.3656 9.72372 13.3856 9.71099 13.4074 9.69707C13.7297 9.49191 14.4544 9.0305 14.1864 9.66628C13.5524 10.3472 12.8734 10.9499 12.1907 11.556C11.7306 11.9644 11.2688 12.3743 10.818 12.8106C10.4253 13.1239 10.0176 13.754 10.4573 14.1928C11.4699 14.889 12.4983 15.5684 13.5261 16.2473C13.8606 16.4683 14.1951 16.6892 14.5288 16.9106C15.0945 17.3542 15.9786 16.9954 16.103 16.3022C16.1583 15.9834 16.2138 15.6645 16.2694 15.3457C16.5762 13.5835 16.8832 11.8208 17.1544 10.0528C17.1913 9.77554 17.233 9.49824 17.2748 9.22079C17.3762 8.54837 17.4776 7.87512 17.5093 7.19908C17.4276 6.52444 16.5947 6.67277 16.1312 6.82447C13.7488 7.71483 11.3901 8.67119 9.04086 9.64441C8.77472 9.76021 8.50495 9.8759 8.23337 9.99236Z" fill="#5154A9"/>
</svg>
